<svg xmlns="http://www.w3.org/2000/svg" width="100%" height="100%" viewBox="0 0 249.4 53.7" >
    <path d="M8.7 28.4c0 2.1.1 3.6.7 4.3.5.6 1.2.9 4.5.9 4.6 0 5.3-.2 7.2-4.5.4-.2 1.1-.1 1.3.3-.3 1.8-1.3 4.9-1.8 6.1-1.8-.1-5.4-.1-10-.1H6.3c-2.1 0-4.2 0-6 .1-.3-.2-.5-1-.1-1.2l1.3-.3c2-.3 2.3-.4 2.3-4.7V13.8c0-4.3-.4-4.5-2.3-4.8L.3 8.8C0 8.6 0 7.8.4 7.6c2.1.1 4 .1 5.9.1 1.8 0 3.7 0 5.6-.1.4.2.4 1 .1 1.2L11 9c-2 .3-2.3.4-2.3 4.8v14.6zm16.4-18c0 3.2-2.8 5.5-5.7 6.2-.3-.3-.4-.8-.3-1.1 1.8-.8 3.4-2 3.4-3.8 0-1.4-1.3-2-2.3-2.2-.6-.1-1.3-.6-1.3-1.5 0-.7.5-2 2.4-2 2 .1 3.8 2.1 3.8 4.4m4.5 8C29.6 8 37.4 0 48.2 0c12.1 0 18.1 8.7 18.1 17.9 0 10.6-8 18.2-18.1 18.2-11.6.1-18.6-8.2-18.6-17.7m31.5 1.1c0-8.6-3.8-17.9-13.8-17.9-5.4 0-12.5 3.7-12.5 15.2 0 7.7 3.8 17.8 14.1 17.8 6.2-.1 12.2-4.8 12.2-15.1m35.2-4.7c-.3.3-1 .4-1.3.1-.7-2.6-2.6-6.1-8.1-6.1-5.3 0-10.7 3.8-10.7 12.3 0 8.9 5.6 13.3 11 13.3 5.3 0 7.6-3.5 8.7-6.2.4-.4 1-.2 1.3.2-.3 2.8-1.4 5.6-2 6.4-.5.1-1 .3-1.5.4-.9.3-3.8 1-6.5 1-4.1 0-7.7-.8-10.7-2.8-3.4-2.2-5.9-6-5.9-11.5 0-4.9 2.2-8.7 5.3-11.1 3.1-2.3 7.3-3.6 11.5-3.6 2.4 0 5.3.4 7.2.9.5.1.8.2 1.2.3 0 .8.1 3.3.5 6.4m29 0c-.3.3-1 .4-1.3.1-.7-2.6-2.6-6.1-8.1-6.1-5.3 0-10.7 3.8-10.7 12.3 0 8.9 5.6 13.3 11 13.3 5.3 0 7.6-3.5 8.7-6.2.4-.4 1-.2 1.3.2-.3 2.8-1.4 5.6-2 6.4-.5.1-1 .3-1.5.4-.9.3-3.8 1-6.5 1-4.1 0-7.7-.8-10.7-2.8-3.4-2.2-5.9-6-5.9-11.5 0-4.9 2.2-8.7 5.3-11.1 3.1-2.3 7.3-3.6 11.5-3.6 2.4 0 5.3.4 7.2.9.5.1.8.2 1.2.3 0 .8.1 3.3.5 6.4m11.3 14.5c0 4.4.4 4.6 2.3 4.8l.9.1c.3.3.3 1-.1 1.2-1.8-.1-3.7-.1-5.6-.1s-3.8 0-5.6.1c-.3-.2-.4-.9-.1-1.2l.9-.1c2-.3 2.3-.4 2.3-4.8V13.8c0-4.4-.4-4.6-2.3-4.8l-.9-.1c-.3-.3-.3-1 .1-1.2 1.8.1 3.7.1 5.6.1 1.8 0 3.7 0 5.6-.1.3.2.4.9.1 1.2l-.9.1c-2 .3-2.3.4-2.3 4.8v15.5zm16.9-18.1c0-1.8 0-1.8-1.1-1.8H150c-3.8 0-5 .5-6.5 3.8-.3.3-1.2.1-1.3-.3.7-2.3 1.3-4.8 1.6-6.3.1-.1.3-.2.5-.2s.3 0 .4.2c.2 1 .8 1.1 3.6 1.1h17.1c2 0 2.7-.1 3.2-1.1.2-.1.3-.2.5-.2.3 0 .5.1.5.2-.4 1.7-.8 5.3-.6 6.6-.2.3-.9.4-1.3.1-.5-3.3-1.3-4.1-5.8-4.1h-2.4c-1.1 0-1.1.1-1.1 1.8v18.1c0 4.4.4 4.6 2.3 4.8l1.5.2c.3.3.3 1-.1 1.2-2.4-.1-4.3-.1-6.1-.1-1.8 0-3.8 0-6.5.1-.3-.2-.4-1-.1-1.2l1.8-.2c2-.2 2.3-.3 2.3-4.7v-18zM175 25.1c-1.1 0-1 0-1.4 1.1l-1.7 5c-.8 2.5-.7 2.6.9 2.8l1.2.2c.3.3.3 1-.1 1.2-1.3-.1-2.7-.1-4.4-.1-1.4 0-2.7 0-4.1.1-.3-.2-.3-.8 0-1.2l1.3-.2c1.2-.2 1.7-.5 2.3-1.9.5-1.1 1.2-2.8 2-5.1l5.7-14.9c.5-1.3.9-2.3.8-3.1 1.5-.3 2.8-2 2.9-2 .3 0 .5.1.7.3.7 1.9 1.2 3.8 1.9 5.7l6 17.5c1 2.8 1.2 3.1 3.3 3.5l.6.1c.3.3.3 1 0 1.2-1.7-.1-3.3-.1-5.4-.1-1.8 0-3.6.1-5.1.1-.3-.2-.4-1-.1-1.2l.9-.1c1.5-.2 1.6-.4 1.1-2.2l-2-5.7c-.4-1.1-.5-1.1-1.7-1.1H175zm5-1.9c1.2 0 1.3-.1 1-1.1l-1.8-5c-.7-2.2-1-3-1.2-3.3-.2.3-.5 1.3-1.3 3.3L175 22c-.5 1.2-.3 1.2.7 1.2h4.3zm40.5 5c0 1.3 0 6.4.1 7.4-.3.5-.9.6-1.4.6-.7-.9-1.9-2.3-4.9-5.7l-9.8-11.2c-2.7-3.1-4.1-4.6-4.8-5.3-.1 0-.1.5-.1 2.7v8.2c0 3.1 0 7 .8 8.2.4.6 1.1.9 2.1 1l.9.1c.4.3.3 1.1-.1 1.2-1.5-.1-3.2-.1-4.8-.1-1.8 0-2.9 0-4.3.1-.3-.2-.4-.9-.1-1.2l.9-.2c.8-.1 1.5-.3 1.8-1 .5-1.3.5-4.9.5-8.2v-9.9c0-3.3 0-3.9-1.4-5.1-.5-.4-1.6-.7-2.2-.8l-.6-.1c-.3-.3-.3-1.1.2-1.2 1.6.2 3.9.1 4.9.1.9 0 1.9 0 2.9-.1.7 1.8 5.3 7.1 6.7 8.7l4.2 4.5c1.8 1.9 5.6 6.4 6.1 6.6.1-.1.1-.3.1-1v-8.2c0-3.1 0-7-.8-8.2-.4-.6-1-.9-2.1-1l-1-.1c-.4-.3-.3-1.1.1-1.2 1.6.1 3.2.1 4.8.1 1.8 0 2.9 0 4.4-.1.3.2.4.9.1 1.2l-1 .2c-.8.1-1.5.3-1.8 1-.6 1.3-.6 4.9-.6 8.2v9.8zm9.6-14.4c0-4.4-.4-4.6-2.3-4.8l-.7-.1c-.3-.3-.3-1 .1-1.2 1.6.1 3.6.1 5.4.1h8c2.7 0 5.1 0 5.6-.1.2.7.4 4 .7 5.8-.2.3-1 .4-1.3.2-.7-2.4-1.3-3.5-2.6-3.8-1-.3-2.2-.4-3.3-.4h-2.8c-1.8 0-1.8.1-1.8 2.5v7.1c0 1.1 0 1.1 1 1.1h2c3.6 0 4.3 0 4.6-1.8l.3-1.4c.3-.3 1.1-.3 1.3 0 0 1.1-.1 2.6-.1 4.2s.1 3.1.1 4.4c-.2.3-1 .3-1.3 0l-.3-1.7c-.3-1.8-1-1.8-4.6-1.8h-2c-1 0-1 .1-1 1.1v5.3c0 2.1.1 3.6.7 4.3.5.6 1.2.9 4.7.9 5.3.1 6.2-1.1 7.7-4.5.4-.3 1.1-.2 1.3.3-.3 1.8-1.2 4.9-1.8 6.1-1.8-.1-5.4-.1-10.3-.1h-4.8c-1.8 0-4.4 0-6.3.1-.3-.2-.4-.9-.1-1.2l1.5-.2c2-.2 2.3-.3 2.3-4.8V13.8zM47.3 45.6c0-1.6-.1-1.6-.8-1.7h-.2c-.1-.1-.1-.4 0-.4h6.8c.1.3.1 1.4.2 2.1-.1.1-.4.2-.5.1-.2-.9-.5-1.2-.9-1.4-.3-.1-.8-.1-1.2-.1h-1c-.6 0-.6 0-.6.9v2.5c0 .4 0 .4.4.4h.7c1.3 0 1.6 0 1.7-.7l.1-.5c.1-.1.4-.1.5 0v3.1c-.1.1-.4.1-.5 0l-.1-.6c-.1-.6-.4-.7-1.7-.7h-.7c-.3 0-.4 0-.4.4v1.9c0 .8 0 1.3.3 1.6.2.2.4.3 1.7.3 1.9 0 2.2-.4 2.8-1.6.1-.1.4-.1.5.1-.1.6-.4 1.8-.6 2.2h-7.7c-.1-.1-.1-.3 0-.4l.6-.1c.7-.1.8-.1.8-1.7v-5.7zm22.4 5.2v2.6c-.1.2-.3.2-.5.2-.2-.3-.7-.8-1.8-2.1l-3.5-4c-1-1.1-1.5-1.7-1.7-1.9v3.9c0 1.1 0 2.5.3 3 .1.2.4.3.8.4h.3c.1.1.1.4 0 .4h-3.3c-.1-.1-.2-.3 0-.4l.3-.1c.3 0 .6-.1.7-.3.2-.5.2-1.8.2-3V46c0-1.2 0-1.4-.5-1.9-.2-.1-.6-.3-.8-.3H60c-.1-.1-.1-.4.1-.4.6.1 1.4 0 1.8 0h1c.3.6 1.9 2.5 2.4 3.1l1.5 1.6c.6.7 2 2.3 2.2 2.4v-3.3c0-1.1 0-2.5-.3-3-.1-.2-.4-.3-.8-.4h-.3c-.1-.1-.1-.4 0-.4h3.3c.1.1.1.3 0 .4l-.3.1c-.3 0-.5.1-.6.3-.2.5-.2 1.8-.2 3v3.6zm18.1-5.1c0-1.4 0-1.6-.6-1.7h-.6c-.1-.1-.1-.4 0-.4 1.1-.1 2-.1 3.3-.1 1.4 0 2.5.2 3.1.6.8.5 1.3 1.3 1.3 2.3 0 2.3-2.2 2.9-3.4 2.9h-.4c-.1-.1-.1-.3 0-.4 1.4-.3 1.9-1.3 1.9-2.5s-.8-2.3-2.2-2.3c-.8 0-.8 0-.8.6v6.6c0 1.6.1 1.6.8 1.7l.6.1c.1.1.1.4 0 .4h-4.1c-.1-.1-.1-.3 0-.4h.2c.7-.1.8-.2.8-1.7v-5.7zm14.2 0c0-1.4 0-1.6-.7-1.7h-.4c-.1-.1-.1-.3 0-.4.9-.1 2.2-.1 3.5-.1 1.2 0 2.2.2 2.9.5.8.4 1.3 1.1 1.3 2.2 0 1.4-1.1 2.1-1.8 2.4-.1 0-.1.2 0 .3 1.2 2 2 3.3 2.7 3.9.4.4.9.5 1 .5.1.1.1.2 0 .3-.2 0-.5.1-1 .1-1.4 0-2.2-.6-3.1-2-.4-.6-.8-1.5-1.2-2-.3-.5-.4-.5-.9-.5s-.5 0-.5.3v1.9c0 1.6.1 1.6.8 1.7h.3c.1.1.1.4 0 .4h-4c-.1-.1-.2-.3 0-.4h.3c.7-.1.8-.1.8-1.7v-5.7zm1.8 2.2c0 .5 0 .5.7.5 1.5 0 2.2-.7 2.2-2.2 0-1.2-.8-2.2-2.1-2.2-.8 0-.8 0-.8.7v3.2zm22.4.5c0 3-2.3 5.2-5.3 5.2-3.4 0-5.4-2.4-5.4-5.1 0-3.1 2.2-5.3 5.4-5.3 3.5 0 5.3 2.5 5.3 5.2m-8.6-.3c0 2.1.9 4.9 3.5 4.9 1.7 0 3.1-1.3 3.1-4.3 0-2.3-1-4.9-3.4-4.9-1.5 0-3.2 1.1-3.2 4.3m21 1.6c-.6 1.4-1.3 3.1-1.6 3.9 0 0-.2.1-.3.1-.1 0-.2 0-.3-.1-.2-.6-.4-1.3-.7-2l-2.6-6.3c-.4-1-.6-1.2-1.2-1.3l-.4-.1c-.1-.1-.1-.4 0-.4h3.8c.1.1.1.3 0 .4l-.4.1c-.3.1-.5.2-.5.3 0 .1.1.5.7 2l1.1 2.7c.3.7.7 1.6.8 1.9.8-1.9 1.7-4 2.5-6 .2-.6.2-.7-.3-.8l-.4-.1c-.1-.1-.1-.4 0-.4h3.1c.1.1.1.3 0 .4l-.4.1c-.3.1-.7.2-.9.6-.4.7-.9 1.7-1.5 3.3l-.5 1.7zm10.2-4.1c0-1.6-.1-1.6-.8-1.7h-.2c-.1-.1-.1-.4 0-.4h6.8c.1.3.1 1.4.2 2.1-.1.1-.4.2-.5.1-.2-.9-.5-1.2-.9-1.4-.3-.1-.8-.1-1.2-.1h-1c-.6 0-.6 0-.6.9v2.5c0 .4 0 .4.4.4h.7c1.3 0 1.6 0 1.7-.7l.1-.5c.1-.1.4-.1.5 0v3.1c-.1.1-.4.1-.5 0l-.1-.6c-.1-.6-.4-.7-1.7-.7h-.7c-.3 0-.4 0-.4.4v1.9c0 .8 0 1.3.3 1.6.2.2.4.3 1.7.3 1.9 0 2.2-.4 2.8-1.6.1-.1.4-.1.5.1-.1.6-.4 1.8-.6 2.2h-7.7c-.1-.1-.1-.3 0-.4l.6-.1c.7-.1.8-.1.8-1.7v-5.7zm22.4 5.2v2.6c-.1.2-.3.2-.5.2-.2-.3-.7-.8-1.8-2.1l-3.5-4c-1-1.1-1.5-1.7-1.7-1.9v3.9c0 1.1 0 2.5.3 3 .1.2.4.3.8.4h.3c.1.1.1.4 0 .4h-3.3c-.1-.1-.2-.3 0-.4l.3-.1c.3 0 .6-.1.7-.3.2-.5.2-1.8.2-3V46c0-1.2 0-1.4-.5-1.9-.2-.1-.6-.3-.8-.3h-.2c-.1-.1-.1-.4.1-.4.6.1 1.4 0 1.8 0h1c.3.6 1.9 2.5 2.4 3.1l1.5 1.6c.6.7 2 2.3 2.2 2.4v-3.3c0-1.1 0-2.5-.3-3-.1-.2-.4-.3-.8-.4h-.3c-.1-.1-.1-.4 0-.4h3.3c.1.1.1.3 0 .4l-.3.1c-.3 0-.5.1-.6.3-.2.5-.2 1.8-.2 3v3.6zm17-4.8c-.1.1-.4.1-.5 0-.3-.9-.9-2.2-2.9-2.2-1.9 0-3.8 1.4-3.8 4.4 0 3.2 2 4.8 3.9 4.8s2.7-1.3 3.1-2.2c.1-.1.4-.1.5.1-.1 1-.5 2-.7 2.3-.2 0-.4.1-.5.1-.3.1-1.4.4-2.3.4-1.5 0-2.8-.3-3.9-1-1.2-.8-2.1-2.2-2.1-4.1 0-1.8.8-3.1 1.9-4 1.1-.8 2.6-1.3 4.2-1.3.9 0 1.9.2 2.6.3.2 0 .3.1.4.1-.1.3 0 1.2.1 2.3m7.7-.4c0-1.6-.1-1.6-.8-1.7h-.2c-.1-.1-.1-.4 0-.4h6.8c.1.3.1 1.4.2 2.1-.1.1-.4.2-.5.1-.2-.9-.5-1.2-.9-1.4-.3-.1-.8-.1-1.2-.1h-1c-.6 0-.6 0-.6.9v2.5c0 .4 0 .4.4.4h.7c1.3 0 1.6 0 1.7-.7l.1-.5c.1-.1.4-.1.5 0v3.1c-.1.1-.4.1-.5 0l-.1-.6c-.1-.6-.4-.7-1.7-.7h-.8c-.3 0-.4 0-.4.4v1.9c0 .8 0 1.3.3 1.6.2.2.4.3 1.7.3 1.9 0 2.2-.4 2.8-1.6.1-.1.4-.1.5.1-.1.6-.4 1.8-.6 2.2h-7.7c-.1-.1-.1-.3 0-.4l.6-.1c.7-.1.8-.1.8-1.7v-5.7z"></path>
</svg>