<?xml version="1.0" encoding="utf-8"?>
<!-- Generator: Adobe Illustrator 26.0.3, SVG Export Plug-In . SVG Version: 6.00 Build 0)  -->
<svg version="1.0" id="katman_1" xmlns="http://www.w3.org/2000/svg" xmlns:xlink="http://www.w3.org/1999/xlink" x="0px" y="0px"
	 viewBox="0 0 600 450" style="enable-background:new 0 0 600 450;" xml:space="preserve">
<style type="text/css">
	.st0{fill:#221F1F;}
</style>
<g>
	<path class="st0" d="M80.3,225.4c0,6,5.1,11.1,11.3,11.1c3.3,0,6.6-1.5,8.9-4.2l0.9-0.9l10.4,6.9l-0.9,1.1
		c-4.6,5.5-11.5,8.9-19,8.9c-13.3,0-24.1-10.4-24.1-23c0-12.6,10.6-23,24.1-23c7.5,0,14.8,3.3,19,9.1l0.9,1.1l-10.4,6.9l-0.9-0.9
		c-2.2-2.7-5.5-4.6-8.9-4.6C85.4,214.3,80.3,219.4,80.3,225.4 M202.9,203.7h11.5v43.4h-13.3l-17.5-24.4v24.4h-11.5v-43.4h12
		l18.8,24.6C202.9,228.2,202.9,203.7,202.9,203.7z M257.6,203.7h13.3l-14.2,43.4h-19l-14.2-43.4h13.3l9.7,30.8
		c0.2,0.4,0.4,0.4,0.4,0.4c0.2,0,0.4,0,0.4-0.4l0,0L257.6,203.7z M364.8,247.1h-13.1l-7.5-15.1c-0.2-0.4-0.9-0.4-1.3-0.4h-5.3v15.7
		H326v-43.4h22.1c7.5,0,13.7,5.5,14.4,12.8c0.4,5.3-2.2,10.2-6.9,12.8L364.8,247.1z M350.4,217.6c0-1.3-1.1-2.2-2.7-2.2h-10.2v4.6
		h10.2C349.5,219.8,350.4,219,350.4,217.6 M420.1,203.7h34.8v11.5h-23.2v4.6h20.8v10.4h-20.8v5.3h23.2v11.5h-34.8V203.7z M410.2,234
		L410.2,234c0,9.3-7.7,14.8-18.4,14.8c-8,0-15.7-2.4-21.5-7.5l6.9-8.4c4.6,3.5,9.7,5.3,14.8,5.3c3.3,0,5.5-1.1,5.5-3.3v-0.2
		c0-1.8-1.8-2.9-7.7-4.2c-9.7-2.2-17-4.9-17-14.2v-0.2c0-8.4,6.4-14.4,17-14.4c7.5,0,13.3,1.8,18.4,6l-6.9,8.4
		c-4.6-2.7-7.7-3.8-11.5-3.8c-3.3,0-4.2,1.3-4.2,2.9v0.2c0,1.8,1.8,2.9,8,4.6C403.7,222.1,410.2,225.6,410.2,234 M163.3,225.4
		c0,12.6-10.6,23-23.5,23c-13.1,0-23.5-10.4-23.5-23s10.6-23,23.5-23S163.3,212.8,163.3,225.4 M150.7,225.4c0-6-4.9-11.1-11.1-11.1
		c-6,0-11.1,4.9-11.1,11.1c0,6,4.9,11.1,11.1,11.1C145.8,236.4,150.7,231.6,150.7,225.4 M280,203.7h34.8v11.5h-23.2v4.6h20.8v10.4
		h-20.8v5.3h23.2v11.5H280V203.7z M486.8,209.7l-6.9,9.7l-11.3-3.8l6.9,9.7l-6.9,9.7l11.3-3.8l6.9,9.7v-12l11.3-3.8l-11.3-3.8V209.7
		z M511.3,225.4l-25,27.2h21.3l25-27.2l-25-27.2h-21.3L511.3,225.4z"/>
</g>
</svg>
